<svg width="28" height="28" viewBox="0 0 28 28" fill="none" xmlns="http://www.w3.org/2000/svg">
<g clip-path="url(#clip0_39_1082)">
<path d="M5.47177 14.9688C6.17262 14.9688 6.74077 14.4006 6.74077 13.6998C6.74077 12.9989 6.17262 12.4308 5.47177 12.4308C4.77091 12.4308 4.20276 12.9989 4.20276 13.6998C4.20276 14.4006 4.77091 14.9688 5.47177 14.9688Z" fill="white"/>
<path d="M22.1325 14.9688C22.8334 14.9688 23.4015 14.4006 23.4015 13.6998C23.4015 12.9989 22.8334 12.4308 22.1325 12.4308C21.4317 12.4308 20.8635 12.9989 20.8635 13.6998C20.8635 14.4006 21.4317 14.9688 22.1325 14.9688Z" fill="white"/>
<path d="M13.9995 -4.26567e-05C11.8131 -0.0122987 9.65424 0.488743 7.69668 1.46278C5.73912 2.43682 4.03747 3.85668 2.72859 5.60814H3.2744H6.69935C8.13435 5.58443 9.54099 5.20464 10.7929 4.50288C11.189 4.2951 11.6283 4.18295 12.0756 4.1754C12.8407 4.17161 13.5768 4.46829 14.1254 5.00162C14.674 5.53495 14.9914 6.26231 15.0093 7.02725C15.0073 7.52875 14.8749 8.02111 14.6252 8.45602C14.3755 8.89094 14.017 9.25347 13.585 9.50804C13.1529 9.76261 12.662 9.90048 12.1606 9.90812C11.6591 9.91576 11.1643 9.79291 10.7247 9.55161C9.19383 8.68995 7.47327 8.22114 5.7169 8.18709H4.35237C3.20958 8.19608 2.07752 8.40863 1.00929 8.81477C-0.318202 12.1441 -0.318202 15.8558 1.00929 19.1851C1.62777 19.3526 2.26524 19.4398 2.90598 19.4444H6.2627C7.6977 19.4207 9.10434 19.0409 10.3563 18.3391C10.7524 18.1314 11.1917 18.0192 11.6389 18.0117C12.4041 18.0042 13.1416 18.2974 13.6928 18.8282C14.244 19.359 14.5649 20.0849 14.5863 20.8499C14.5923 21.3513 14.4679 21.8457 14.2251 22.2846C13.9824 22.7235 13.6298 23.0917 13.2018 23.3531C12.7739 23.6146 12.2853 23.7603 11.784 23.7759C11.2828 23.7916 10.7861 23.6767 10.3426 23.4425C8.81176 22.5808 7.0912 22.112 5.33483 22.0779H3.97031C3.55466 22.0802 3.1397 22.1121 2.72859 22.1734C4.13116 24.1238 6.01201 25.6804 8.19021 26.6936C10.3684 27.7068 12.7707 28.1424 15.166 27.9586C17.5612 27.7748 19.8689 26.9777 21.867 25.644C23.8651 24.3104 25.4864 22.485 26.5749 20.3434C27.6635 18.2019 28.1827 15.8163 28.0825 13.4161C27.9824 11.0159 27.2663 8.68178 26.0032 6.63836C24.74 4.59495 22.9723 2.91094 20.8701 1.74833C18.7678 0.585724 16.4018 -0.0163731 13.9995 -4.26567e-05ZM22.1867 17.1793C21.6243 17.1788 21.0709 17.0381 20.5765 16.7699C18.7774 15.7448 16.7519 15.1822 14.6818 15.1325H13.0717C11.0015 15.1822 8.97609 15.7448 7.17693 16.7699C6.65448 17.0512 6.06747 17.1908 5.47431 17.1748C4.88116 17.1587 4.30255 16.9876 3.79607 16.6785C3.28958 16.3694 2.87289 15.933 2.58745 15.4128C2.30202 14.8926 2.15779 14.3067 2.16914 13.7134C2.19766 12.8134 2.5781 11.9604 3.22873 11.3379C3.87936 10.7153 4.74824 10.3728 5.64867 10.384C6.17297 10.3973 6.68692 10.5328 7.14964 10.7797C8.60068 11.6192 10.2364 12.0879 11.9118 12.1442H15.8689C17.5444 12.0879 19.1801 11.6192 20.6311 10.7797C21.0938 10.5328 21.6078 10.3973 22.1321 10.384C23.0348 10.3729 23.9057 10.7172 24.5567 11.3427C25.2077 11.9682 25.5866 12.8246 25.6116 13.7271C25.6189 14.1778 25.5363 14.6255 25.3688 15.0441C25.2013 15.4626 24.9522 15.8436 24.636 16.1649C24.3198 16.4862 23.9428 16.7414 23.5269 16.9155C23.1111 17.0897 22.6648 17.1794 22.214 17.1793H22.1867Z" fill="white"/>
<path d="M11.5848 21.9279C12.1802 21.9279 12.6628 21.4453 12.6628 20.8499C12.6628 20.2546 12.1802 19.772 11.5848 19.772C10.9895 19.772 10.5068 20.2546 10.5068 20.8499C10.5068 21.4453 10.9895 21.9279 11.5848 21.9279Z" fill="white"/>
<path d="M12.0078 8.07794C12.6031 8.07794 13.0858 7.59532 13.0858 6.99997C13.0858 6.40462 12.6031 5.922 12.0078 5.922C11.4124 5.922 10.9298 6.40462 10.9298 6.99997C10.9298 7.59532 11.4124 8.07794 12.0078 8.07794Z" fill="white"/>
</g>
<defs>
<clipPath id="clip0_39_1082">
<rect width="28" height="28" fill="white"/>
</clipPath>
</defs>
</svg>
