<svg width="25" height="25" viewBox="0 0 25 25" fill="none" xmlns="http://www.w3.org/2000/svg">
<path d="M24.5258 7.6923L22.9715 6.13805C22.7608 5.9273 22.392 5.8746 22.1285 6.03267C21.2065 6.61222 20.0474 6.4805 19.2835 5.71654C18.5195 4.95258 18.3878 3.76712 18.9673 2.87144C19.1254 2.60801 19.0991 2.26554 18.862 2.02845L17.3077 0.47419C16.6754 -0.158055 15.6217 -0.158055 14.9895 0.47419L11.0379 4.42572L12.6712 6.059L11.7229 7.00738L10.0896 5.37408L0.47419 14.9895C-0.158055 15.6217 -0.158055 16.6754 0.47419 17.3077L2.02845 18.8619C2.2392 19.0727 2.58167 19.1254 2.84511 18.9673C3.74079 18.4141 4.89989 18.5722 5.66385 19.3098C6.40147 20.0474 6.55954 21.2065 6.00633 22.1285C5.84827 22.392 5.8746 22.7344 6.11169 22.9452L7.6923 24.5258C8.00843 24.8419 8.42993 25 8.85143 25C9.27292 25 9.69441 24.8419 10.0105 24.5258L19.6259 14.9104L17.9926 13.2771L18.941 12.3288L20.5743 13.9621L24.5258 10.0105C25.1581 9.37829 25.1581 8.32455 24.5258 7.6923ZM12.6185 7.9294L13.5669 6.98103L15.3319 8.74605L14.3836 9.69442L12.6185 7.9294ZM17.0443 12.3551L15.2792 10.5901L16.2276 9.64173L17.9926 11.4068L17.0443 12.3551Z" fill="white"/>
</svg>
